<?xml version="1.0" encoding="utf-8"?>
<!-- Generator: Adobe Illustrator 24.1.3, SVG Export Plug-In . SVG Version: 6.00 Build 0)  -->
<svg version="1.1" id="icon" xmlns="http://www.w3.org/2000/svg" xmlns:xlink="http://www.w3.org/1999/xlink" x="0px" y="0px"
	 viewBox="0 0 800 800" style="enable-background:new 0 0 800 800;" xml:space="preserve">
<style type="text/css">
	.st0{fill:#FFFFFF;}
	.st1{fill:none;}
</style>
<path class="st0" d="M675,600c-11.1,0.1-22.1,2.6-32.1,7.5L535.4,500H450v50h64.6l92.9,92.9c-4.9,10-7.5,21-7.5,32.1
	c0,41.4,33.6,75,75,75s75-33.6,75-75C750,633.6,716.4,600,675,600z M675,700c-13.8,0-25-11.2-25-25c0-13.8,11.2-25,25-25
	s25,11.2,25,25C700,688.8,688.8,700,675,700z"/>
<path class="st0" d="M675,325c-31.7,0.1-59.9,20.1-70.4,50H450v50h154.6c13.9,38.9,56.7,59.3,95.7,45.4
	c38.9-13.9,59.3-56.7,45.4-95.7C735,344.9,706.7,324.9,675,325z M675,425c-13.8,0-25-11.2-25-25c0-13.8,11.2-25,25-25s25,11.2,25,25
	C700,413.8,688.8,425,675,425z"/>
<path class="st0" d="M675,50c-41.4,0-75,33.6-75,75c0.1,12,3.1,23.8,8.7,34.3L514.9,250H450v50h85.1l110-106.3
	c38,16.5,82.1-0.8,98.7-38.8c16.5-38-0.8-82.1-38.8-98.7C695.5,52.1,685.3,50,675,50z M675,150c-13.8,0-25-11.2-25-25s11.2-25,25-25
	s25,11.2,25,25C700,138.8,688.8,150,675,150z"/>
<path class="st0" d="M450,150h50v-50h-50c-28.8,0.1-56.2,12.7-75,34.6c-18.8-21.9-46.2-34.5-75-34.6h-25
	C150.8,100.1,50.1,200.8,50,325v150c0.1,124.2,100.8,224.9,225,225h25c28.8-0.1,56.2-12.7,75-34.6c18.8,21.9,46.2,34.5,75,34.6h50
	v-50h-50c-27.6,0-50-22.4-50-50V200C400,172.4,422.4,150,450,150z M300,650h-25c-86.9-0.2-160.5-64-173-150h48v-50h-50V350h75
	c41.4,0,75-33.6,75-75v-50h-50v50c0,13.8-11.2,25-25,25h-73c12.5-86,86.1-149.8,173-150h25c27.6,0,50,22.4,50,50v100h-50v50h50v100
	h-50c-41.4,0-75,33.6-75,75v50h50v-50c0-13.8,11.2-25,25-25h50v100C350,627.6,327.6,650,300,650z"/>
<rect id="_Transparent_Rectangle_" y="0" class="st1" width="800" height="800"/>
</svg>
